<?xml version="1.0" encoding="utf-8"?>
<!-- Generator: Adobe Illustrator 18.0.0, SVG Export Plug-In . SVG Version: 6.00 Build 0)  -->
<!DOCTYPE svg PUBLIC "-//W3C//DTD SVG 1.1//EN" "http://www.w3.org/Graphics/SVG/1.1/DTD/svg11.dtd">
<svg version="1.1" id="Layer_1" xmlns="http://www.w3.org/2000/svg" xmlns:xlink="http://www.w3.org/1999/xlink" x="0px" y="0px"
	 viewBox="0 0 33.2 30.3" style="enable-background:new 0 0 33.2 30.3;" xml:space="preserve">
<style type="text/css">
	.st0{fill:#FFFFFF;}
</style>
<g>
	<circle class="st0" cx="12" cy="27.8" r="2.5"/>
	<circle class="st0" cx="27.4" cy="27.8" r="2.5"/>
	<path class="st0" d="M26,26.1H12.7c-0.9,0-1.7-0.6-1.9-1.4L5.4,6.3C5.2,5.7,4.8,5.3,4.2,5l-3-1.2c-1-0.4-1.5-1.6-1.1-2.6l0,0
		c0.4-1,1.6-1.5,2.6-1.1L7.5,2c0.6,0.2,1,0.7,1.2,1.3l5.1,17.3c0.2,0.9,1,1.4,1.9,1.4H26c1.1,0,2,0.9,2,2l0,0
		C28,25.2,27.1,26.1,26,26.1z"/>
	<path class="st0" d="M32.3,4.8H8.5C8,4.8,7.6,5.1,7.6,5.5C7.5,6,7.4,6.5,7.4,7.1c0,0.6,0,1.1,0.1,1.6C7.6,9.2,8,9.5,8.5,9.5H9
		l2.4,8.9c0.2,0.8,1,1.4,1.9,1.4h14.2c0.9,0,1.6-0.6,1.9-1.4c0,0,4-12.3,3.9-12.8C33.2,5.1,32.8,4.8,32.3,4.8z M12.1,11.5l-0.8-2.9
		c0-0.2,0.1-0.3,0.2-0.3h3.9l0.5,3.2H12.1z M13.5,16.2c-0.1,0-0.2-0.1-0.2-0.2l-0.7-2.8h3.6l0.4,3H13.5z M21.5,16.2h-3.4l-0.2-3h3.7
		L21.5,16.2z M21.8,11.5h-3.9l-0.2-3.2H22L21.8,11.5z M26.4,16c0,0.1-0.1,0.2-0.2,0.2h-3.1l0.4-3h3.6L26.4,16z M28.4,8.6l-0.8,2.9
		h-3.8l0.5-3.2h3.9C28.3,8.3,28.5,8.5,28.4,8.6z"/>
</g>
</svg>
