<svg width="22" height="21" viewBox="0 0 22 21" xmlns="http://www.w3.org/2000/svg"><title>Fill 43 + Fill 44</title><g fill="#FFF" fill-rule="evenodd"><path d="M15.817 14.533c-.59 0-1.07-.487-1.07-1.086 0-.6.48-1.086 1.07-1.086.59 0 1.07.487 1.07 1.087s-.48 1.086-1.07 1.086zm-1.64 3.55c-.592 0-1.07-.487-1.07-1.086 0-.6.478-1.086 1.07-1.086.59 0 1.068.487 1.068 1.087s-.478 1.086-1.07 1.086zm-2.826-4.636c0-.6.48-1.086 1.07-1.086.59 0 1.07.487 1.07 1.087s-.48 1.086-1.07 1.086c-.59 0-1.07-.487-1.07-1.086zm-.627 4.636c-.59 0-1.07-.487-1.07-1.086 0-.6.48-1.086 1.07-1.086.59 0 1.068.487 1.068 1.087s-.477 1.086-1.067 1.086zm-2.768-4.636c0-.6.478-1.086 1.07-1.086.59 0 1.068.487 1.068 1.087s-.48 1.086-1.07 1.086c-.59 0-1.068-.487-1.068-1.086zm-.686 4.636c-.59 0-1.07-.487-1.07-1.086 0-.6.48-1.086 1.07-1.086.59 0 1.07.487 1.07 1.087s-.48 1.086-1.07 1.086zm-2.712-4.636c0-.6.48-1.086 1.07-1.086.59 0 1.07.487 1.07 1.087s-.48 1.086-1.07 1.086c-.59 0-1.07-.487-1.07-1.086zm16.76-5.354c-.073-.387-.42-.66-.812-.66h-7.98c-.1.687-.493 1.325-1.137 1.69-.342.192-.73.294-1.12.294-.833 0-1.6-.456-2.01-1.2l-.42-.784H.94c-.394 0-.74.273-.812.66C.045 8.537 0 9.03 0 9.54c0 .51.045 1.003.128 1.447.07.387.418.66.81.66h.472l2.18 7.947c.204.75.886 1.27 1.663 1.27h10.94c.776 0 1.457-.52 1.663-1.27l2.178-7.947h.472c.393 0 .74-.273.81-.66.084-.444.128-.937.128-1.447s-.044-1.003-.127-1.447z"/><path d="M11.307 5.96L8.47.665C8.24.24 7.805 0 7.357 0c-.21 0-.423.053-.62.164C6.12.51 5.9 1.3 6.242 1.924L9.078 7.22c.233.424.667.664 1.116.664.21 0 .422-.053.62-.164.614-.348.835-1.136.493-1.76"/></g></svg>